<!-- https://www.svgrepo.com/svg/508543/settings -->
<svg xmlns="http://www.w3.org/2000/svg" width="22" height="22" fill="none" viewBox="0 0 24 24">
  <circle cx="12" cy="12" r="3" fill="#90caf9" stroke="#1976d2" stroke-width="2"/>
  <path stroke="#1976d2" stroke-width="2" d="M19.4 15a1.65 1.65 0 0 0 .33 1.82l.06.06a2 2 0 1 1-2.83 2.83l-.06-.06A1.65 1.65 0 0 0 15 19.4a1.65 1.65 0 0 0-1.82.33l-.06.06a2 2 0 1 1-2.83-2.83l.06-.06A1.65 1.65 0 0 0 4.6 15a1.65 1.65 0 0 0-.33-1.82l-.06-.06A2 2 0 1 1 7.1 7.1l.06.06A1.65 1.65 0 0 0 9 4.6a1.65 1.65 0 0 0 1.82-.33l.06-.06a2 2 0 1 1 2.83 2.83l-.06.06A1.65 1.65 0 0 0 19.4 9a1.65 1.65 0 0 0 .33 1.82l.06.06a2 2 0 1 1-2.83 2.83l-.06-.06A1.65 1.65 0 0 0 15 19.4"/>
</svg>
